<!DOCTYPE svg PUBLIC "-//W3C//DTD SVG 1.1//EN" "http://www.w3.org/Graphics/SVG/1.1/DTD/svg11.dtd">
<!-- Uploaded to: SVG Repo, www.svgrepo.com, Transformed by: SVG Repo Mixer Tools -->
<svg fill="#04ca00" height="800px" width="800px" version="1.1" id="Layer_1" xmlns="http://www.w3.org/2000/svg" xmlns:xlink="http://www.w3.org/1999/xlink" viewBox="0 0 512 512" xml:space="preserve" stroke="#04ca00">
<g id="SVGRepo_bgCarrier" stroke-width="0"/>
<g id="SVGRepo_tracerCarrier" stroke-linecap="round" stroke-linejoin="round"/>
<g id="SVGRepo_iconCarrier"> <g> <g> <g> <path d="M319.654,17.507C317.806,7.368,308.973,0,298.667,0C134.431,0,0,113.752,0,256s134.431,256,298.667,256 c10.306,0,19.139-7.368,20.987-17.507l2.155-11.819c26.024-153.137,26.035-306.534,0.018-453.247L319.654,17.507z M280.869,468.826C147.171,461.179,42.667,368.032,42.667,256c0-112.045,104.529-205.201,238.249-212.829 C304.607,180.972,304.596,325.019,280.869,468.826z"/> <path d="M405.333,85.333h85.333C502.449,85.333,512,75.782,512,64c0-11.782-9.551-21.333-21.333-21.333h-85.333 C393.551,42.667,384,52.218,384,64C384,75.782,393.551,85.333,405.333,85.333z"/> <path d="M490.667,170.667h-85.333C393.551,170.667,384,180.218,384,192s9.551,21.333,21.333,21.333h85.333 c11.782,0,21.333-9.551,21.333-21.333S502.449,170.667,490.667,170.667z"/> <path d="M490.667,298.667h-85.333C393.551,298.667,384,308.218,384,320s9.551,21.333,21.333,21.333h85.333 c11.782,0,21.333-9.551,21.333-21.333S502.449,298.667,490.667,298.667z"/> <path d="M490.667,426.667h-85.333C393.551,426.667,384,436.218,384,448c0,11.782,9.551,21.333,21.333,21.333h85.333 c11.782,0,21.333-9.551,21.333-21.333C512,436.218,502.449,426.667,490.667,426.667z"/> </g> </g> </g> </g>
</svg>